<?xml version="1.0" standalone="no"?>
<svg xmlns:xlink="http://www.w3.org/1999/xlink" xmlns="http://www.w3.org/2000/svg" width="500" height="500" viewBox="0 0 500 500"><g class="vf-stavenote" id="vf-auto1009"><g class="vf-note" pointer-events="bounding-box"><g class="vf-notehead" pointer-events="bounding-box"><path stroke-width="0.3" fill="white" stroke="none" stroke-dasharray="none" d="M83.15312 120M83.15312 121.6848C83.15312 123.7908,84.89408 125.0544,87.08432 125.0544C90.67856 125.0544,95.08712 121.74096,95.08712 118.3152C95.08712 116.23728,93.45848000000001 114.9456,91.15592000000001 114.9456C86.71928 114.9456,83.15312 118.23096,83.15312 121.6848"/></g></g><g class="vf-modifiers"/></g><g class="vf-stavenote" id="vf-auto1016"><g class="vf-note" pointer-events="bounding-box"><g class="vf-notehead" pointer-events="bounding-box"><path stroke-width="0.3" fill="white" stroke="none" stroke-dasharray="none" d="M98.18380658720437 120M98.18380658720437 121.6848C98.18380658720437 123.7908,99.92476658720437 125.0544,102.11500658720438 125.0544C105.70924658720438 125.0544,110.11780658720437 121.74096,110.11780658720437 118.3152C110.11780658720437 116.23728,108.48916658720438 114.9456,106.18660658720438 114.9456C101.74996658720437 114.9456,98.18380658720437 118.23096,98.18380658720437 121.6848"/></g></g><g class="vf-modifiers"/></g><g class="vf-stavenote" id="vf-auto1023"><g class="vf-note" pointer-events="bounding-box"><g class="vf-notehead" pointer-events="bounding-box"><path stroke-width="0.3" fill="white" stroke="none" stroke-dasharray="none" d="M113.21449317440874 120M113.21449317440874 121.6848C113.21449317440874 123.7908,114.95545317440875 125.0544,117.14569317440875 125.0544C120.73993317440875 125.0544,125.14849317440874 121.74096,125.14849317440874 118.3152C125.14849317440874 116.23728,123.51985317440875 114.9456,121.21729317440875 114.9456C116.78065317440874 114.9456,113.21449317440874 118.23096,113.21449317440874 121.6848"/></g></g><g class="vf-modifiers"/></g><g class="vf-stavenote" id="vf-auto1030"><g class="vf-note" pointer-events="bounding-box"><g class="vf-notehead" pointer-events="bounding-box"><path stroke-width="0.3" fill="white" stroke="none" stroke-dasharray="none" d="M128.24517976161314 120M128.24517976161314 121.6848C128.24517976161314 123.7908,129.98613976161315 125.0544,132.17637976161313 125.0544C135.77061976161315 125.0544,140.17917976161314 121.74096,140.17917976161314 118.3152C140.17917976161314 116.23728,138.55053976161315 114.9456,136.24797976161315 114.9456C131.81133976161314 114.9456,128.24517976161314 118.23096,128.24517976161314 121.6848"/></g></g><g class="vf-modifiers"/></g><g class="vf-stavenote" id="vf-auto1037"><g class="vf-note" pointer-events="bounding-box"><g class="vf-notehead" pointer-events="bounding-box"><path stroke-width="0.3" fill="white" stroke="none" stroke-dasharray="none" d="M143.2758663488175 120M143.2758663488175 121.6848C143.2758663488175 123.7908,145.0168263488175 125.0544,147.20706634881748 125.0544C150.8013063488175 125.0544,155.20986634881749 121.74096,155.20986634881749 118.3152C155.20986634881749 116.23728,153.5812263488175 114.9456,151.2786663488175 114.9456C146.84202634881748 114.9456,143.2758663488175 118.23096,143.2758663488175 121.6848"/></g></g><g class="vf-modifiers"/></g><g class="vf-stavenote" id="vf-auto1044"><g class="vf-note" pointer-events="bounding-box"><g class="vf-notehead" pointer-events="bounding-box"><path stroke-width="0.3" fill="white" stroke="none" stroke-dasharray="none" d="M158.3065529360219 120M158.3065529360219 121.6848C158.3065529360219 123.7908,160.0475129360219 125.0544,162.23775293602188 125.0544C165.8319929360219 125.0544,170.24055293602188 121.74096,170.24055293602188 118.3152C170.24055293602188 116.23728,168.6119129360219 114.9456,166.3093529360219 114.9456C161.87271293602188 114.9456,158.3065529360219 118.23096,158.3065529360219 121.6848"/></g></g><g class="vf-modifiers"/></g><g class="vf-stavenote" id="vf-auto1051"><g class="vf-note" pointer-events="bounding-box"><g class="vf-notehead" pointer-events="bounding-box"><path stroke-width="0.3" fill="white" stroke="none" stroke-dasharray="none" d="M185.03531341279563 120M185.03531341279563 121.6848C185.03531341279563 123.7908,186.77627341279563 125.0544,188.96651341279562 125.0544C192.56075341279563 125.0544,196.96931341279563 121.74096,196.96931341279563 118.3152C196.96931341279563 116.23728,195.34067341279564 114.9456,193.03811341279564 114.9456C188.60147341279563 114.9456,185.03531341279563 118.23096,185.03531341279563 121.6848"/></g></g><g class="vf-modifiers"/></g><path stroke-width="1.5" fill="none" stroke="white" stroke-dasharray="none" d="M94.33712 120L94.33712 85.75"/><path stroke-width="1.5" fill="none" stroke="white" stroke-dasharray="none" d="M109.36780658720437 120L109.36780658720437 85.75"/><path stroke-width="1.5" fill="none" stroke="white" stroke-dasharray="none" d="M124.39849317440874 120L124.39849317440874 85.75"/><path stroke-width="1.5" fill="none" stroke="white" stroke-dasharray="none" d="M139.42917976161314 120L139.42917976161314 85.75"/><path stroke-width="0.3" fill="white" stroke="none" stroke-dasharray="none" d="M93.58712 85L93.58712 90L139.67917976161314 90L139.67917976161314 85Z"/><path stroke-width="0.3" fill="white" stroke="none" stroke-dasharray="none" d="M93.58712 92.5L93.58712 97.5L139.67917976161314 97.5L139.67917976161314 92.5Z"/><path stroke-width="1.5" fill="none" stroke="white" stroke-dasharray="none" d="M154.45986634881749 120L154.45986634881749 85.75"/><path stroke-width="1.5" fill="none" stroke="white" stroke-dasharray="none" d="M169.49055293602188 120L169.49055293602188 85.75"/><path stroke-width="1.5" fill="none" stroke="white" stroke-dasharray="none" d="M196.21931341279563 120L196.21931341279563 85.75"/><path stroke-width="0.3" fill="white" stroke="none" stroke-dasharray="none" d="M153.70986634881749 85L153.70986634881749 90L196.46931341279563 90L196.46931341279563 85Z"/><path stroke-width="0.3" fill="white" stroke="none" stroke-dasharray="none" d="M153.70986634881749 92.5L153.70986634881749 97.5L164.70986634881749 97.5L164.70986634881749 92.5Z"/><path stroke-width="0.3" fill="white" stroke="none" stroke-dasharray="none" d="M195.46931341279563 92.5L195.46931341279563 97.5L186.46931341279563 97.5L186.46931341279563 92.5Z"/></svg>