<?xml version="1.0" standalone="no"?>
<svg xmlns:xlink="http://www.w3.org/1999/xlink" xmlns="http://www.w3.org/2000/svg" width="500" height="500" viewBox="0 0 500 500"><g class="vf-stavenote" id="vf-auto1009"><g class="vf-note" pointer-events="bounding-box"><g class="vf-notehead" pointer-events="bounding-box"><path stroke-width="0.3" fill="white" stroke="none" stroke-dasharray="none" d="M83.15312 110M83.15312 109.91576C83.15312 112.63952,85.45568 115.0544,91.49288 115.0544C98.11976 115.0544,100.22576000000001 112.75184,100.22576000000001 109.91576C100.22576000000001 107.0516,95.64872 104.9456,91.886 104.9456C86.52272 104.9456,83.15312 107.16392,83.15312 109.91576M87.5336 108.42752C87.5336 108.09056,87.56168 107.78168,87.64592 107.44472C88.0952 106.04072,89.58344 105.84416,90.84704 105.84416C93.62696 105.84416,95.84528 108.82064,95.84528 111.2636C95.84528 112.49912,95.31176 113.6504,93.992 113.95928C93.59888000000001 114.0716,93.1496 114.12776,92.72840000000001 114.12776C91.26824 114.12776,89.78 113.14496,88.9376 112.02176C88.12328 111.09512,87.5336 109.7192,87.5336 108.42752"/></g></g><g class="vf-modifiers"/></g></svg>