<?xml version="1.0" standalone="no"?>
<svg xmlns:xlink="http://www.w3.org/1999/xlink" xmlns="http://www.w3.org/2000/svg" width="500" height="500" viewBox="0 0 500 500"><g class="vf-stavenote" id="vf-auto1009"><g class="vf-note" pointer-events="bounding-box"><g class="vf-stem" pointer-events="bounding-box"><path stroke-width="1.5" fill="none" stroke="white" stroke-dasharray="none" d="M94.33712 120L94.33712 45"/></g><g class="vf-notehead" pointer-events="bounding-box"><path stroke-width="0.3" fill="white" stroke="none" stroke-dasharray="none" d="M83.15312 120M83.15312 121.6848C83.15312 123.7908,84.89408 125.0544,87.08432 125.0544C90.67856 125.0544,95.08712 121.74096,95.08712 118.3152C95.08712 116.23728,93.45848000000001 114.9456,91.15592000000001 114.9456C86.71928 114.9456,83.15312 118.23096,83.15312 121.6848"/></g><g class="vf-notehead" pointer-events="bounding-box"><path stroke-width="0.3" fill="white" stroke="none" stroke-dasharray="none" d="M83.15312 110M83.15312 111.6848C83.15312 113.7908,84.89408 115.0544,87.08432 115.0544C90.67856 115.0544,95.08712 111.74096,95.08712 108.3152C95.08712 106.23728,93.45848000000001 104.9456,91.15592000000001 104.9456C86.71928 104.9456,83.15312 108.23096,83.15312 111.6848"/></g><g class="vf-notehead" pointer-events="bounding-box"><path stroke-width="0.3" fill="white" stroke="none" stroke-dasharray="none" d="M83.15312 100M83.15312 101.6848C83.15312 103.7908,84.89408 105.0544,87.08432 105.0544C90.67856 105.0544,95.08712 101.74096,95.08712 98.3152C95.08712 96.23728,93.45848000000001 94.9456,91.15592000000001 94.9456C86.71928 94.9456,83.15312 98.23096,83.15312 101.6848"/></g><g class="vf-notehead" pointer-events="bounding-box"><path stroke-width="0.3" fill="white" stroke="none" stroke-dasharray="none" d="M83.15312 90M83.15312 91.6848C83.15312 93.7908,84.89408 95.0544,87.08432 95.0544C90.67856 95.0544,95.08712 91.74096,95.08712 88.3152C95.08712 86.23728,93.45848000000001 84.9456,91.15592000000001 84.9456C86.71928 84.9456,83.15312 88.23096,83.15312 91.6848"/></g><g class="vf-notehead" pointer-events="bounding-box"><path stroke-width="0.3" fill="white" stroke="none" stroke-dasharray="none" d="M83.15312 80M83.15312 81.6848C83.15312 83.7908,84.89408 85.0544,87.08432 85.0544C90.67856 85.0544,95.08712 81.74096,95.08712 78.3152C95.08712 76.23728,93.45848000000001 74.9456,91.15592000000001 74.9456C86.71928 74.9456,83.15312 78.23096,83.15312 81.6848"/></g></g><g class="vf-modifiers"/></g></svg>