<?xml version="1.0" standalone="no"?>
<svg xmlns:xlink="http://www.w3.org/1999/xlink" xmlns="http://www.w3.org/2000/svg" width="500" height="500" viewBox="0 0 500 500"><g class="vf-stavenote" id="vf-auto1009"><g class="vf-note" pointer-events="bounding-box"><g class="vf-stem" pointer-events="bounding-box"><path stroke-width="1.5" fill="none" stroke="white" stroke-dasharray="none" d="M94.33712 120L94.33712 70"/></g><g class="vf-notehead" pointer-events="bounding-box"><path stroke-width="0.3" fill="white" stroke="none" stroke-dasharray="none" d="M83.15312 120M83.15312 121.6848C83.15312 123.7908,84.89408 125.0544,87.08432 125.0544C90.67856 125.0544,95.08712 121.74096,95.08712 118.3152C95.08712 116.23728,93.45848000000001 114.9456,91.15592000000001 114.9456C86.71928 114.9456,83.15312 118.23096,83.15312 121.6848"/></g><g class="vf-notehead" pointer-events="bounding-box"><path stroke-width="0.3" fill="white" stroke="none" stroke-dasharray="none" d="M83.15312 105M83.15312 106.6848C83.15312 108.7908,84.89408 110.0544,87.08432 110.0544C90.67856 110.0544,95.08712 106.74096,95.08712 103.3152C95.08712 101.23728,93.45848000000001 99.9456,91.15592000000001 99.9456C86.71928 99.9456,83.15312 103.23096,83.15312 106.6848"/></g></g><g class="vf-modifiers"/></g></svg>